<?xml version="1.0" encoding="UTF-8"?>
<svg id="Layer_1" data-name="Layer 1" xmlns="http://www.w3.org/2000/svg" viewBox="0 0 48 48">
  <defs>
    <style>
      .cls-1 {
        fill: none;
        stroke: #231f20;
        stroke-linecap: round;
        stroke-linejoin: round;
        stroke-width: 2px;
      }
    </style>
  </defs>
  <rect class="cls-1" x="2" y="1.5" width="43.99" height="45"/>
  <g>
    <polygon class="cls-1" points="40.1 14.04 40.1 24.64 37.41 24.64 37.41 29.82 34.73 29.82 34.73 33.96 13.27 33.96 13.27 29.82 10.59 29.82 10.59 24.64 7.9 24.64 7.9 14.04 40.1 14.04"/>
    <g>
      <line class="cls-1" x1="15.02" y1="15.01" x2="15.02" y2="16.62"/>
      <line class="cls-1" x1="11.43" y1="15.01" x2="11.43" y2="16.62"/>
      <line class="cls-1" x1="18.61" y1="15.01" x2="18.61" y2="16.62"/>
      <line class="cls-1" x1="22.2" y1="15.01" x2="22.2" y2="16.62"/>
      <line class="cls-1" x1="25.8" y1="15.01" x2="25.8" y2="16.62"/>
      <line class="cls-1" x1="29.39" y1="15.01" x2="29.39" y2="16.62"/>
      <line class="cls-1" x1="32.98" y1="15.01" x2="32.98" y2="16.62"/>
      <line class="cls-1" x1="36.57" y1="15.01" x2="36.57" y2="16.62"/>
    </g>
  </g>
  <g>
    <g>
      <line class="cls-1" x1="4.94" y1="39.33" x2="4.94" y2="8.67"/>
      <line class="cls-1" x1="43.06" y1="39.33" x2="43.06" y2="8.67"/>
    </g>
    <line class="cls-1" x1="4.94" y1="8.67" x2="43.06" y2="8.67"/>
  </g>
</svg>