<?xml version="1.0" encoding="UTF-8"?>
<svg id="Layer_1" data-name="Layer 1" xmlns="http://www.w3.org/2000/svg" viewBox="0 0 48 48">
  <defs>
    <style>
      .cls-1 {
        fill: none;
        stroke: #231f20;
        stroke-linecap: round;
        stroke-linejoin: round;
        stroke-width: 2.03px;
      }
    </style>
  </defs>
  <g>
    <rect class="cls-1" x="1.5" y="3.15" width="45" height="39.35"/>
    <g>
      <rect class="cls-1" x="6.81" y="43.03" width="7.09" height="1.21"/>
      <rect class="cls-1" x="33.49" y="43.63" width="7.09" height="1.21"/>
    </g>
  </g>
  <g>
    <g>
      <rect class="cls-1" x="4.52" y="7.83" width="4.58" height="4.7"/>
      <rect class="cls-1" x="21.71" y="7.83" width="4.58" height="4.7"/>
      <rect class="cls-1" x="38.9" y="7.83" width="4.58" height="4.7"/>
      <rect class="cls-1" x="30.3" y="7.83" width="4.58" height="4.7"/>
      <rect class="cls-1" x="13.11" y="7.83" width="4.58" height="4.7"/>
    </g>
    <g>
      <rect class="cls-1" x="4.52" y="16.37" width="4.58" height="4.7"/>
      <rect class="cls-1" x="21.71" y="16.37" width="4.58" height="4.7"/>
      <rect class="cls-1" x="38.9" y="16.37" width="4.58" height="4.7"/>
      <rect class="cls-1" x="30.3" y="16.37" width="4.58" height="4.7"/>
      <rect class="cls-1" x="13.11" y="16.37" width="4.58" height="4.7"/>
    </g>
    <g>
      <rect class="cls-1" x="4.52" y="24.9" width="4.58" height="4.7"/>
      <rect class="cls-1" x="21.71" y="24.9" width="4.58" height="4.7"/>
      <rect class="cls-1" x="38.9" y="24.9" width="4.58" height="4.7"/>
      <rect class="cls-1" x="30.3" y="24.9" width="4.58" height="4.7"/>
      <rect class="cls-1" x="13.11" y="24.9" width="4.58" height="4.7"/>
    </g>
    <g>
      <rect class="cls-1" x="4.52" y="33.44" width="4.58" height="4.7"/>
      <rect class="cls-1" x="21.71" y="33.44" width="4.58" height="4.7"/>
      <rect class="cls-1" x="38.9" y="33.44" width="4.58" height="4.7"/>
      <rect class="cls-1" x="30.3" y="33.44" width="4.58" height="4.7"/>
      <rect class="cls-1" x="13.11" y="33.44" width="4.58" height="4.7"/>
    </g>
  </g>
</svg>